<svg width="1000" height="500" version="1.0" xmlns="http://www.w3.org/2000/svg">
 <path d="m1e3 500v-500h-1000v500z" fill="#000"/>
 <path d="m784.53 363.56c1.5055 1.9162 2.4794 3.6894-0.12081 6.8379-2.4646 2.2582-4.2005 3.5016-6.6651 5.7599-1.1635 1.985-1.907 4.9959 1.6523 5.955 6.5721 1.8475 18.977-6.3669 18.977-6.5732 2.4645-1.8475 1.643-5.338 1.4367-5.338-1.4367-1.643-4.6745-0.66724-6.8528-0.93304-1.0371 0-1.6471-2.1568-0.0282-5.1678 1.3512-1.8735 1.8345-3.0203 2.7508-5.3287 1.026-2.2583 0.14498-3.7656-3.5518-4.9979-3.7656-0.68398-5.2692-0.34199-9.4456 0-2.2582 0.47953-3.0296 1.4888-3.4403 4.2265 0.1617 4.1522 2.6876 3.9161 5.2878 5.5592zm-28.823-98.614c-2.0973 3.1174-3.6703 5.4554 0.52433 7.7934 4.1947 2.338 10.487 8.5728 7.865 15.587-1.573 5.4554 0 9.7418 4.719 1.9484 4.719-8.1831 1.0487-17.925-3.6703-24.16-4.1947-5.4554-6.8163-4.2864-9.438-1.169zm127.74-111.36c5.7677 5.2494 8.9136 3.6746 5.2433-5.2494-4.1947-8.9239-8.3893-18.373-12.06-26.772-4.1947-8.9239-5.2433-6.8242-9.9623-0.52493-5.2433 6.2992-5.7677 11.024-3.6703 14.698 9.9623 83.465 14.681 127.03 15.73 152.23 2.0973 36.746-6.8163 57.218-42.471 80.84-11.535 7.874-24.644 16.798 3.146 9.9738 27.265-6.8242 56.628-25.197 53.482-101.31-2.6217-68.242-11.535-98.163-9.438-123.88zm-42.471-16.798c-3.146 5.2494-2.6217 6.2992 1.0487 12.074 3.6703 6.2992 6.8163 17.848 6.8163 26.772s3.146 7.874 4.719-0.52494c1.573-7.874 1.0487-23.622-3.6703-34.646-4.719-11.549-6.292-7.3491-8.9136-3.6746zm30.411 173.75c-1.0487-7.3491-3.146-14.698-12.584-28.871-9.438-13.648-17.827-26.247-26.217-38.32-2.6217-31.496-6.292-65.092-6.292-82.94 4.1946 4.1995 7.3406 0 5.2433-6.8242-2.0973-6.8242-6.292-25.197-9.438-33.071-2.6217-7.3491-5.7677-5.7743-9.9623 1.0499-3.6703 6.8242-6.292 9.9738-3.6703 15.223 1.0487 30.446 5.2433 59.843 9.9623 86.614-8.3893-11.549-16.254-22.572-23.595-32.546-0.52434-11.549-1.573-23.097-2.0973-34.646 4.719 3.6746 6.8163 2.6247 4.1947-4.1995-2.0973-7.3491-7.865-22.572-10.487-29.396-2.6217-6.8242-4.1947-6.8242-7.865-1.5748-5.7677 8.9239-7.3407 15.223-2.6217 23.622 0.52433 7.3491 1.573 15.223 2.0973 22.047-4.719-6.2992-8.9137-12.598-12.584-18.373 4.719 2.6247 8.3893-1.5748 3.146-6.2992-4.719-4.7244-14.681-12.598-18.876-18.373-4.719-5.7743-8.9137-5.7743-8.9137-0.52494s0.52434 9.9738 0 14.698c-1.0487 4.1995-1.0487 8.399 5.2433 15.748 12.06 14.698 23.595 29.921 34.606 44.095 4.1947 52.494 6.8163 86.09 5.7677 107.09-0.52434 12.598-4.719 19.948-11.535 22.047-6.8163 2.6247-13.633-2.0997-19.925-11.549-11.535-16.798-15.73-13.648-24.644 1.0499-8.3893 13.648-14.157 25.197-18.876 35.171-4.1947 9.4488-11.535 17.848-18.352 5.2494-6.292-12.598-7.3407-26.772-6.8163-36.746 0-9.9738-1.573-17.848-5.2433-2.0998-9.438 38.845-3.6703 47.244 6.8163 55.643 13.108 11.549 17.303 12.598 24.119 2.6247 13.633-18.898 17.303-35.696 25.168-45.144 6.292-7.3491 6.292-1.5748 9.438 2.0998 7.865 9.9738 14.681 13.648 25.692 15.223 11.011 2.0998 30.936-7.3491 29.363-44.095-1.0487-22.047-2.6217-51.969-4.719-83.99 10.487 14.698 19.925 27.822 27.265 38.32 3.6703 20.997 5.7677 39.895 4.719 55.118-1.0487 17.323 2.6217 17.323 6.292-0.52494 1.0487-7.3491 1.0487-22.572-0.52432-40.945 14.157 18.898 22.546 31.496 28.314 40.42 6.292 11.024 9.9623 20.473 8.3893-2.0997zm-143.67-41.47c0-3.6746 1.573-4.7244 7.865-9.9738 5.2433-4.1995 19.925-14.698 24.644-19.423 4.719-4.7244 8.3893-8.9239 9.438-3.1496 0.52433 5.7743 1.573 7.874-4.1947 11.024-5.7677 2.6247-20.973 12.074-25.692 15.748-5.2433 4.1995-12.06 9.4488-12.06 5.7743zm1.573-64.567c-1.0487 4.7244-7.3406 4.7244-6.8163-0.52493 0.52433-5.2494 0-4.1995 0-8.399-0.52434-4.1995 4.719-6.8242 7.3406-3.1496 3.146 3.6746 8.3893 15.223 9.9623 19.423 2.0973 4.1995 3.146 3.1496 3.146-2.6247-0.52432-6.8242-1.573-13.123-1.0486-17.848 0.52433-2.6247 2.0973-5.7743 5.2433-8.399 3.6703-2.6247 5.7676-3.1496 7.3406 1.5748 1.0487 4.1995 4.1947 4.7244 2.6217 8.399-2.0973 5.2494-6.8163-5.2494-9.9623 2.0998-1.573 5.2494 0 19.948-0.52433 25.197 0 4.7244-2.0973 11.549-5.7677 3.6746-2.6217-5.2494-6.292-14.173-11.535-19.423zm-36.179-42.52c7.3406 3.6746 15.206 5.7743 9.438-3.1496-5.7676-8.399-10.487-22.572-13.633-33.071-3.6703-10.499-4.719-9.9738-10.487-1.0499-8.9137 13.648-1.0487 26.772 1.0487 42.52 7.3406 56.168 14.681 113.39 16.779 128.61 2.0973 16.798 4.719 27.822 0.52435 46.194-1.573 5.7743 0.52432 7.3491 4.1946 0.52493 14.681-27.822 4.719-51.969 3.146-67.717-2.6217-24.147-11.011-88.189-12.584-113.91m-34.606-1.5748c4.1947 3.6746 8.9137 3.6746 6.292-4.1995s-4.719-17.323-7.3407-26.247-4.1947-11.024-7.3406-6.8242c-3.6703 4.7244-6.292 6.2992-8.9136 9.4488-2.6217 2.6247-3.146 8.399 0 13.648 11.535 79.265 12.06 114.44 13.633 143.83 1.573 29.396 5.7677 43.045-12.584 62.992-19.925 21.522-31.984 26.772-40.898 28.871-11.011 3.1496-15.206 7.874 1.573 6.8242 24.644-1.5748 28.314-2.0998 48.239-25.722 11.535-12.598 17.303-29.396 16.254-68.242-1.0487-68.242-10.487-97.638-8.9137-134.38zm-131.61 200.53c5.2433-3.1496 7.865-5.7743 12.06-7.3491 4.1947-2.0997 7.3406-1.5748 4.1947 7.3491-3.146 10.499-1.573 13.648 5.2433 11.024 6.292-2.0998 9.9623-4.7244 15.206-6.8242 4.719-2.0997 9.9623-2.0997 2.6217 3.6746-5.7677 4.7244-14.157 11.024-18.876 12.074-10.487 2.6247-15.73-1.5748-13.633-9.9738 2.0973-7.874 3.6703-11.024-2.6217-8.399-7.3407 3.1496-6.8163 0-4.1947-1.5748zm84.418-178.48c2.0973 6.2992 4.719 9.4488 6.292 1.5748 1.0487-6.8242 3.146-8.9239 4.1947-1.5748 1.573 7.3491 5.7677 6.2992 6.8163-0.52493 1.573-6.8242 3.6703-10.499 4.719-3.1496 1.0487 7.874 0.52432 10.499-0.52434 13.123-0.52433 2.0997-4.719 4.7244-7.865 1.5748-3.6703-3.1496-4.719-3.1496-7.3407-0.52494-5.7677 5.2494-7.865 1.5748-8.9136-5.7743-0.52434-6.2992 1.573-8.9239 2.6217-4.7244zm35.13 132.28c-4.719-23.622-26.217-61.418-58.201-110.76-1.0487-13.123-1.573-25.197-1.573-36.221 4.719 5.2494 7.865 2.0997 6.292-4.7244-3.146-12.074-7.865-22.047-13.633-35.696-2.0973-5.7743-7.865-7.3491-10.487 1.0499-3.6703 9.9738-4.1947 12.074 0.52434 18.898-0.52434 7.3491 2.0973 19.948 3.146 31.496-5.7677-8.399-13.108-18.898-18.876-27.822 8.9136 3.6746 14.157 1.0499 6.292-7.3491-7.865-8.9239-18.876-17.848-25.692-24.147-6.8163-6.2992-9.9623-2.0998-8.9136 3.6746 0.52432 5.7743 1.0487 9.9738 0.52432 14.698-0.52432 4.7244 1.0487 7.874 7.865 10.499 13.633 17.848 27.265 36.221 39.849 55.118 1.573 15.748 4.719 33.071 6.292 47.244 4.1947 33.596 10.487 77.166 5.2433 96.063-4.1946 14.173 0 20.472 6.8163-1.0499 6.292-21.522 5.7677-41.995 1.573-74.016-1.573-12.598-2.0973-28.347-3.6703-43.045 22.022 34.121 41.947 66.667 50.86 89.239 4.719 12.074 8.9137 14.698 5.7677-3.1496zm-39.325-191.6c-2.0973 4.1995-3.6703 7.3491 0.52433 10.499 4.1947 3.1496 10.487 11.549 7.865 20.997-1.573 7.3491 0 13.123 4.719 2.6247 4.719-11.024 1.0487-24.147-3.6703-32.546-4.1946-7.3491-6.8163-5.7743-9.438-1.5748zm-155.2 114.44c-1.0487 7.3491 0.52434 12.074 3.146 15.748s7.865 3.1496 9.438-1.0499c1.573-4.7244 2.6217-5.2494 5.7677-1.5748 3.6703 3.6746 15.73 0.52493 9.9623-17.848-2.6217-7.3491-3.6703-5.7743-3.6703 2.6247 0 13.123-4.1947 13.123-8.9136 0.52493-1.573-4.7244-3.6703-4.7244-4.1947 1.5748 0 12.074-5.2433 13.648-8.3893 1.5748-1.0487-5.2494-2.0973-9.4488-3.146-1.5748zm60.823 21.522c3.6703-1.0499 7.3407-1.5748 11.535-2.6247 11.011-2.6247 4.719-3.6746-2.6217-8.399-7.865-4.7244-11.011-4.7244-10.487 0.52494 0.52434 3.1496 0.52434 6.2992 1.573 10.499l-13.633 4.1995c-8.9137-13.123-3.146-22.572 3.6703-32.546 8.3893-12.074 22.022-8.399 37.752 2.6247 15.73 11.024 9.438 28.347-5.7677 37.27-3.6703 2.0998-8.3893 4.1995-14.157 6.2992 1.573 3.6746-0.52432 4.7244-5.2433 1.5748-13.633 4.7244-31.46 11.549-44.044 18.373 15.206 1.0499 78.126 0 90.71-1.5748 12.584-1.0499 10.487 1.0499 6.8163 12.074-3.6703 10.499-7.865 9.4488-18.352 11.024-16.779 3.1496-41.422 10.499-59.25 17.848-17.827 7.3491-11.535 20.473 6.8163 27.297 14.157 3.6746 12.584 5.2494 9.9623 13.648-2.0973 7.874-2.0973 9.9738-19.4 7.3491-42.471-6.8242-57.677-30.446-64.493-48.819-26.217 37.27-51.909 57.743-76.028 51.444-12.06-2.6247-17.827-13.648-18.876-27.297-16.779 7.874-36.179 14.698-61.347 22.047-5.7677 2.0997-10.487-0.52494-2.6216-4.1995 16.779-8.399 42.995-22.572 64.493-37.795 2.0973-9.4488 6.8163-22.572 11.535-32.021 2.6216-5.7743 4.1945-3.6746 4.1945 1.0499 0 3.6746-1.0486 13.123-0.52421 19.948 3.6703-3.1496 8.9136-6.2992 11.535-8.9239 14.681-13.123 30.936-21.522 19.925-42.52-4.719-9.4488-8.3894-16.273-9.9623-20.472-9.4381-3.6746-6.8163-8.9239-2.6216-17.848 4.1945-8.9239 5.7676-11.024 14.157-1.0499 12.06 14.173 13.633 20.472 5.2432 19.423 13.108 33.596 9.9624 50.919-10.487 70.866-9.4379 9.9738-19.4 17.848-30.936 24.147-1.0486 8.9239 2.6218 17.848 19.4 15.223 22.022-3.1496 46.666-32.021 57.152-54.068-4.719-18.373-15.206-51.444-21.498-68.242-3.146-8.399 0-12.074 2.6216-18.898 3.146-6.8242 4.719-11.024 8.3894-1.5748 3.6703 8.9239 15.206 31.496 20.449 58.268 5.7676 26.772 4.7189 49.869 18.352 62.467 6.292 5.7743 14.157 9.4488 22.546 11.549-6.292-17.848 6.8163-31.496 24.119-37.795-10.487-9.9738-26.741-8.399-45.093-9.4488-13.633-0.52493-12.06-2.0997-8.3892-14.173 3.6703-12.074 7.8649-13.648 17.827-17.848 13.633-5.2494 27.265-10.499 41.422-14.698zm-76.028-135.96c-3.6703 3.6746-3.6703 4.1995-0.52436 8.9239 3.1461 3.6746 7.865 15.223 6.2921 27.297-0.52435 5.2494 0.52435 10.499 3.146 1.0499 2.0973-9.4488 1.5731-22.572-1.0487-30.446-2.6216-7.874-5.7676-9.9738-7.865-6.8242zm-71.309 20.472c-8.3894 23.622-7.865 46.194 9.4381 65.617 9.9623 11.024 17.303 5.7743 21.498-6.2992 4.719-11.549 7.865-23.097 11.011-30.971 3.146-7.874 5.7677-6.2992 5.2434 1.0499-1.573 14.698-2.6218 38.32 12.06 47.244 14.681 8.9239 37.228-6.2992 45.093-22.047 23.595 31.496 44.568 16.798 47.19-13.648 0.52432-9.4488-3.6703-29.921-6.292-35.696-2.6217-6.2992-1.0487-6.2992 2.6217-3.1496 3.6703 3.6746 9.9623 5.7743 6.8163-4.7244-3.6703-9.9738-7.865-15.748-13.633-20.472-5.2433-4.7244-6.292-2.0997-8.3893 1.5748-2.0973 3.6746-1.573 4.7244-4.719 7.3491-3.146 3.1496-2.6217 4.7244 0 10.499 8.9137 23.097 17.303 56.693 3.146 59.843-13.108 2.6247-21.498-25.722-22.022-38.32-0.52433-16.798-2.6217-30.971-5.7677-39.895-3.6703-8.9239-4.719-10.499-7.3407-5.7743-2.0973 3.6746-2.6217 6.2992-4.719 9.9738-2.0973 3.6746 0 4.7244 1.573 12.074 7.865 36.746 6.8163 53.543-9.9623 62.992-16.779 9.9738-25.692 0.52494-25.692-11.024-0.52435-11.549-0.52435-25.722 1.0487-36.221 1.0486-10.499 3.6703-12.074 0-17.323-3.6703-5.7743-6.8163-3.6746-11.535 3.1496-10.487 14.698-20.973 39.37-24.644 50.919-3.6703 12.074-11.011 7.874-16.254-2.0997-5.7677-12.074-5.2434-33.596-3.1461-41.995 2.0974-8.399 1.0487-12.074-2.6216-2.6247zm-24.119-2.0997c1.0486-2.0998 2.0973-4.7244 2.6216-6.8242 1.0487-3.1496-1.5731-6.2992-3.6703-1.5748-1.573 3.6746-2.0974 6.2992 1.0487 8.399l-5.7677 9.9738c-6.8163-5.7743-6.8163-14.173-4.1947-21.522 6.2919-16.273 27.265-14.173 21.498 6.8242-0.52421 3.1496-2.0973 7.3491-4.1945 11.549 3.146 4.1995 1.5729 9.4488-4.719 8.399-6.8163 11.024-19.925 23.097-42.471 33.071-10.487 4.7244-12.06 1.0499-4.1947-3.6746 15.206-9.9738 29.363-22.047 38.276-34.646zm-13.633 46.719c-6.2919 7.874-11.011 19.423-2.0973 26.247 4.7189 4.1995 14.681-0.52494 18.352-8.399 3.6703-8.399 2.0973-9.4488-4.1947-2.6247-8.9137 9.9738-17.827 1.0499-8.3894-12.598 6.2919-9.4488 2.6216-11.549-3.6703-2.6247zm-14.157 115.49c1.0487 3.6746 0.52435 12.074-1.0487 15.748-2.0973 4.7244 0 6.8242 3.146 1.0499 3.146-6.2992 5.2434-13.648 3.6703-20.997-0.52435-5.2494-0.52435-6.8242-5.2432-8.9239-5.2434-2.0997-6.8164 1.0499-8.3894 5.2494-2.0974 5.2494 0.52435 11.024 7.865 7.874zm-74.98-36.746c-2.0974 0.52494-4.1947 1.5748-5.7677 2.0998-9.4379 2.6247-11.011-1.0499-10.487-6.8242 0.52435-5.7743 1.0487-7.3491 7.3406-4.7244 2.6216 1.0499 5.7676 4.7244 8.9137 9.4488l14.157-5.2494c-2.6216-5.7743-6.2919-10.499-12.06-16.273-9.4379-9.4488-17.303-9.9738-25.168 1.5748-7.3406 11.024-6.8164 13.648-6.2921 23.622 0.52435 9.9738-1.5729 13.648 6.2921 16.273 7.3406 2.6247 10.487 1.5748 15.206 0 3.6703-1.0499 8.9136-2.6247 14.157-4.7244 1.0487 5.2494 0.52435 11.024-2.6216 15.223-19.4 23.097-49.287 39.895-62.396 24.672-7.3406-8.399-10.487-21.522-8.3894-37.27 2.0974-13.123-2.0973-7.3491-3.6703-2.6247-4.7189 15.223-6.2919 37.27 0 48.294 8.9137 15.223 23.071 22.047 45.617 12.074 22.546-9.9738 44.568-27.822 43.52-52.494 0-4.7244-0.52435-8.9239-0.52435-12.074 2.0973-1.0499 5.7676-3.6746 8.3894-4.7244 0.52435 8.399-0.52435 18.898 0 27.297 1.0486 26.772-9.4381 34.646-18.876 41.995-13.108 10.499-30.936 17.323-46.141 19.948-36.179 5.2494-44.568-17.848-44.044-48.819 0-4.7244 2.0974-7.874 2.0974-14.698-0.52435-13.123-2.0974-11.024-6.2919 2.0997-3.6703 12.598-8.3894 41.995 3.6703 66.142 12.584 24.147 55.055 17.323 88.088 1.5748 32.509-15.748 36.179-45.669 34.606-75.591 0-7.874-0.52435-16.273-1.0486-25.197 1.0486-0.52493 1.5729-1.5748 2.0973-2.0997 4.719 15.223 26.741 11.024 33.557 2.0997 3.6703-4.1995 3.6703-4.7244 6.8163 0 4.719 6.8242 20.973 8.9239 25.168-0.52493 3.6703-9.9738 3.146-19.423 2.0973-26.772-1.0487-7.3491-2.6216-6.8242-7.3406-3.1496-5.2434 4.1995-1.0487 4.7244-0.52435 9.9738 2.0974 19.948-15.206 18.373-17.303-2.0997-1.0487-12.598-3.146-7.874-4.719-2.0997-7.3406 24.672-28.838 29.396-26.741 1.0499 0.52435-8.399-4.719-5.7743-7.3406-2.6247-2.6216 2.0997-4.719 4.7244-7.3406 6.2992-1.5731-23.097-3.146-49.344-5.7677-80.84 6.2921 7.874 12.06-1.0499 7.865-9.9738-3.146-6.8242-7.865-22.047-11.011-30.446-2.6216-8.399-4.1947-5.7743-11.011 1.0499-6.2919 7.3491-5.2432 8.9239-2.0973 16.273-1.0487 8.9239 0.52435 17.848 2.6216 36.221 1.5731 13.123 5.7677 40.42 7.865 75.066-3.146 1.5748-7.865 4.7244-11.011 6.2992zm-110.63 45.144c0.52435 5.2494 0.52435 8.9239 0.52435 11.024 0 3.6746-2.0974 7.3491-3.1461 12.074-6.2919 22.572 3.1461 33.596 8.3894 25.197 4.719-8.399 7.3406-7.3491 6.8163-0.52494-0.52421 22.572-22.022 24.147-23.595 5.2494-2.6218-29.921 4.1947-34.646 6.2919-44.62 1.5731-6.8242 3.6703-12.074 4.719-8.399zm-11.011-33.071c15.206-18.373 34.606-27.822 44.568-30.971 6.2919-2.0997 9.4379-4.7244 9.4379 1.5748 0.52435 5.7743 0 6.2992-5.2432 7.874-12.06 3.1496-37.228 15.748-45.617 22.047-4.1947 3.1496-9.4381 6.8242-3.146-0.52494zm85.466-158.01c-1.5729 4.1995-0.52435 9.4488 2.0974 12.598 2.6216 3.6746 7.3406 3.6746 10.487 1.0499 2.6216-3.1496 2.6216-3.6746 5.2432 0.52494 1.5731 3.1496 6.8164 2.0997 8.3894-1.0499 1.0487-2.6247 2.6218-5.2494 1.0487-8.9239s-1.5731-2.6247-2.6216 1.5748c-1.0487 6.8242-7.3406 5.2494-7.865-3.1496 0-7.874-1.573-3.6746-3.6703 1.5748-3.6703 7.874-8.9137 6.2992-8.9137-0.52493 0-5.7743-1.5731-10.499-4.1947-3.6746zm-22.546 110.24c1.5731 18.898 6.8163 54.068 6.8163 66.142 0.52435 12.598 2.0974 8.9239 5.2434 2.0997 3.146-6.8242 2.6216-14.173 2.0973-24.147-1.0486-10.499-1.5729-27.822-3.6703-51.444 4.1947-3.1496 7.865-8.399 9.4381-11.549 4.1947-7.874 5.2432-7.3491 6.8163-1.0499 3.146 12.598 15.73 20.997 32.509 8.9239 15.73-11.024 8.9137-34.121 2.0974-59.318 5.7676 1.0499 7.865-3.6746 4.1947-9.9738-1.5731-3.6746-4.719-6.8242-7.3406-9.9738-2.6218-3.1496-5.2434-5.7743-7.865-2.6247-2.0974 3.1496-4.719 5.7743-6.2921 7.874-1.5729 2.0998-1.5729 4.1995 0.52435 9.4488 6.2921 14.698 10.487 30.446 11.535 39.37 1.5731 8.399-1.5729 10.499-7.3406 10.499-5.7676 0-13.633-1.5748-16.779-14.173-3.1461-12.598-4.719-18.373-4.1947-26.772 0.52435-8.399 1.5729-14.173-4.1947-22.572-6.2919-8.399-6.8163-6.8242-8.3894-2.6247-1.0487 4.7244-3.146 11.549-1.0487 19.423 2.6218 11.549 4.1947 21.522 5.7677 28.347 1.0487 4.7244-3.6703 14.698-10.487 19.948-1.5731-15.748-4.1947-36.746-5.2434-53.543 8.9137-3.1496 4.1947-15.223-3.146-28.347-5.2434-9.9738-7.3406-5.7743-11.011 0.52494-3.6703 6.2992-1.0487 8.9239 1.5729 14.173-2.0973 4.1995 1.573 10.499 3.146 22.047 0.52435 7.3491 2.0974 28.347 3.6705 46.719-7.3408 0-11.535-4.7244-14.157-11.024-5.7676-13.123-4.1947-25.197-1.5729-33.071 2.6216-7.874 5.2432-19.948 0.52435-23.097-4.1947-3.1496-9.9624 0.52493-13.633 6.2992-6.2919 9.4488-12.06 23.097-12.584 37.27-0.52422 5.7743-2.0973 16.798-4.7189 20.997-2.0974 4.1995-5.7677 4.7244-9.4381-1.5748-6.2919-9.9738-8.3894-35.171-7.865-48.294 0-6.2992-1.5729-7.3491-3.6703 0-6.8163 25.197 1.0487 52.494 6.8163 64.042 5.7677 11.549 13.108 8.9239 18.352-0.52494 7.8649-14.173 4.7189-26.772 12.06-47.769 4.1947-13.123 5.7677-3.1496 4.1947 4.7244-3.6703 20.997-2.6216 55.118 27.265 54.593zm-45.093-82.415c5.2434-14.698 5.7676-27.822-0.52435-23.097-5.2432 4.1995-8.3894 0-4.1947-4.7244 5.2434-6.8242 12.06-8.9239 13.633 2.6247 0.52421 8.9239-5.7677 19.948-8.9137 25.197z" fill="#fff"/>
</svg>
