<?xml version="1.0" encoding="UTF-8" standalone="no"?>
<svg
   xmlns:dc="http://purl.org/dc/elements/1.1/"
   xmlns:cc="http://creativecommons.org/ns#"
   xmlns:rdf="http://www.w3.org/1999/02/22-rdf-syntax-ns#"
   xmlns:svg="http://www.w3.org/2000/svg"
   xmlns="http://www.w3.org/2000/svg"
   xmlns:sodipodi="http://sodipodi.sourceforge.net/DTD/sodipodi-0.dtd"
   xmlns:inkscape="http://www.inkscape.org/namespaces/inkscape"
   width="1200"
   height="800"
   id="svg2"
   version="1.1"
   inkscape:version="0.48.4 r9939"
   sodipodi:docname="Flag_of_Ukraine.svg">
  <metadata
     id="metadata12">
    <rdf:RDF>
      <cc:Work
         rdf:about="">
        <dc:format>image/svg+xml</dc:format>
        <dc:type
           rdf:resource="http://purl.org/dc/dcmitype/StillImage" />
      </cc:Work>
    </rdf:RDF>
  </metadata>
  <defs
     id="defs10" />
  <sodipodi:namedview
     pagecolor="#ffffff"
     bordercolor="#666666"
     borderopacity="1"
     objecttolerance="10"
     gridtolerance="10"
     guidetolerance="10"
     inkscape:pageopacity="0"
     inkscape:pageshadow="2"
     inkscape:window-width="1680"
     inkscape:window-height="988"
     id="namedview8"
     showgrid="false"
     inkscape:zoom="0.37240957"
     inkscape:cx="556.29007"
     inkscape:cy="455.80082"
     inkscape:window-x="-8"
     inkscape:window-y="-8"
     inkscape:window-maximized="1"
     inkscape:current-layer="svg2" />
  <rect
     width="1200"
     height="800"
     fill="#005BBB"
     id="rect4" />
  <rect
     width="1200"
     height="400"
     y="400"
     fill="#FFD500"
     id="rect6" />
  <g
     transform="matrix(1.0354424,0,0,1.0354424,1282.1755,-102.62438)"
     id="g3102">
    <path
       sodipodi:nodetypes="cscssscssscc"
       inkscape:connector-curvature="0"
       id="path3864"
       d="m -951.42857,198.43361 c 80.47108,-48.85617 176.86338,-71.25988 270.08068,-71.46829 90.3303,-0.20196 190.86539,21.44565 274.56218,71.46829 -0.30681,89.77476 1.45428,175.81145 0.96501,264.46954 -0.0614,11.12991 0.282,27.66892 -1.06031,38.62016 -4.67373,38.13076 -12.86695,75.27574 -26.57034,110.87712 -35.25665,91.59671 -111.42707,181.19576 -245.62369,233.89063 -103.96187,-39.55302 -187.00865,-104.78855 -236.11786,-211.69741 -15.40074,-33.52681 -27.71323,-71.45202 -33.01843,-112.51979 -2.05509,-15.90853 -3.54687,-34.62194 -3.65642,-52.01933 -0.47962,-76.17421 -0.70118,-195.07362 0.43919,-271.62092 z"
       style="fill:#000000;stroke:none" />
    <path
       sodipodi:nodetypes="cscccscsssc"
       inkscape:connector-curvature="0"
       id="path3864-9-4"
       d="m 1029.264,402.6909 c 73.3673,-44.54334 160.2505,-61.71933 245.239,-61.90934 82.3563,-0.18414 169.5165,16.07764 245.8249,61.68447 -0.2797,81.84984 1.7853,45.82262 1.3392,126.65432 1.0696,28.06298 -3.5635,57.86537 -9.0789,82.64743 -4.1,18.2403 -9.376,36.15117 -16.1126,53.65287 -32.1443,83.51092 -97.5501,166.7157 -219.9004,214.75892 -94.7846,-36.06142 -170.5003,-95.5382 -215.2744,-193.00961 -14.0412,-30.56721 -25.2667,-65.14453 -30.1036,-102.58702 -1.8736,-14.50418 -3.2337,-31.56565 -3.3336,-47.42726 -0.4373,-69.44987 0.3607,-64.67475 1.4004,-134.46478 z"
       style="fill:#ffc300;fill-opacity:1;stroke:#000000;stroke-opacity:1"
       transform="translate(-1953.2731,-65.76394)" />
    <g
       transform="matrix(0.79069637,0,0,0.79069637,-877.9108,298.90216)"
       inkscape:label="Layer 1"
       id="layer1-7">
      <g
         id="g5005">
        <g
           id="g4957">
          <path
             sodipodi:type="arc"
             style="fill:#ffffff;fill-opacity:1;fill-rule:nonzero;stroke:none"
             id="path2043"
             sodipodi:cx="237.14285"
             sodipodi:cy="257.14285"
             sodipodi:rx="208.57143"
             sodipodi:ry="208.57143"
             d="m 445.71428,257.14285 c 0,115.19082 -93.38061,208.57143 -208.57143,208.57143 -115.19082,0 -208.571424,-93.38061 -208.571424,-208.57143 0,-115.19082 93.380604,-208.571424 208.571424,-208.571424 115.19082,0 208.57143,93.380604 208.57143,208.571424 z"
             transform="matrix(1.19863,0,0,1.19863,-34.24654,-58.21914)" />
          <path
             sodipodi:type="arc"
             style="fill:#ffc300;fill-opacity:1;fill-rule:nonzero;stroke:none"
             id="path2045"
             sodipodi:cx="237.14285"
             sodipodi:cy="257.14285"
             sodipodi:rx="208.57143"
             sodipodi:ry="208.57143"
             d="m 445.71428,257.14285 c 0,115.19082 -93.38061,208.57143 -208.57143,208.57143 -115.19082,0 -208.571424,-93.38061 -208.571424,-208.57143 0,-115.19082 93.380604,-208.571424 208.571424,-208.571424 115.19082,0 208.57143,93.380604 208.57143,208.571424 z"
             transform="matrix(1.078767,0,0,1.078767,-5.821884,-27.39722)" />
          <path
             sodipodi:type="arc"
             style="fill:#ffffff;fill-opacity:1;fill-rule:nonzero;stroke:none"
             id="path2773"
             sodipodi:cx="237.14285"
             sodipodi:cy="257.14285"
             sodipodi:rx="208.57143"
             sodipodi:ry="208.57143"
             d="m 445.71428,257.14285 c 0,115.19082 -93.38061,208.57143 -208.57143,208.57143 -115.19082,0 -208.571424,-93.38061 -208.571424,-208.57143 0,-115.19082 93.380604,-208.571424 208.571424,-208.571424 115.19082,0 208.57143,93.380604 208.57143,208.571424 z"
             transform="matrix(0.599315,0,0,0.599315,107.8767,95.89043)" />
          <path
             sodipodi:type="arc"
             style="fill:#ffc300;fill-opacity:1;fill-rule:nonzero;stroke:none"
             id="path2775"
             sodipodi:cx="237.14285"
             sodipodi:cy="257.14285"
             sodipodi:rx="208.57143"
             sodipodi:ry="208.57143"
             d="m 445.71428,257.14285 c 0,115.19082 -93.38061,208.57143 -208.57143,208.57143 -115.19082,0 -208.571424,-93.38061 -208.571424,-208.57143 0,-115.19082 93.380604,-208.571424 208.571424,-208.571424 115.19082,0 208.57143,93.380604 208.57143,208.571424 z"
             transform="matrix(0.479452,0,0,0.479452,136.3014,126.7123)" />
        </g>
        <path
           inkscape:connector-curvature="0"
           id="rect3503"
           d="m 287.5,21.71875 0,53.28125 -50,0 0,25 0,300 -25,0 0,25 50,0 0,-25 0,-300 25,0 25,0 0,-78.28125 -25,0 z m -100.09375,378.125 0,78.28125 25,0 0,-78.28125 -25,0 z"
           style="fill:#ffffff;fill-opacity:1;fill-rule:nonzero;stroke:none" />
        <path
           inkscape:connector-curvature="0"
           id="path4976"
           d="m 478.20312,287.54688 -53.28124,0 0,-50 -25,0 -300.000005,0 0,-25 -25,0 0,50 25,0 300.000005,0 0,25 0,25 78.28124,0 0,-25 z m -378.125,-100.09376 -78.281245,0 0,25 78.281245,0 0,-25 z"
           style="fill:#ffffff;fill-opacity:1;fill-rule:nonzero;stroke:none" />
        <path
           inkscape:connector-curvature="0"
           id="path4978"
           d="m 466.40312,168.33535 -46.1429,26.6406 -25,-43.30127 -21.65059,12.5 -259.80764,150.00001 -12.5,-21.65064 -21.65063,12.5 25,43.30127 21.65063,-12.5 259.80763,-150.00001 12.5,21.65064 12.5,21.65063 67.7935,-39.1406 -12.5,-21.65063 z m -377.5127,102.37875 -67.79354,39.14062 12.5,21.65063 67.79354,-39.14062 -12.5,-21.65063 z"
           style="fill:#ffffff;fill-opacity:1;fill-rule:nonzero;stroke:none" />
        <path
           inkscape:connector-curvature="0"
           id="path4999"
           d="m 396.61809,71.14374 -26.64062,46.14288 -43.30127,-24.99999 -12.49996,21.65061 -150.00001,259.80764 -21.65064,-12.50001 -12.49999,21.65064 43.30127,24.99999 12.49999,-21.65063 150,-259.80763 21.65064,12.5 21.65063,12.5 39.1406,-67.79351 -21.65064,-12.49999 z m -275.74621,277.41895 -39.140615,67.79354 21.650635,12.50003 39.14061,-67.79358 -21.65063,-12.49999 z"
           style="fill:#ffffff;fill-opacity:1;fill-rule:nonzero;stroke:none" />
        <path
           inkscape:connector-curvature="0"
           id="path5001"
           d="m 168.33533,33.596855 26.64063,46.14292 -43.30128,25.000005 12.5,21.65063 150,259.80763 -21.65063,12.5 12.5,21.65062 43.30127,-25 -12.5,-21.65062 -150,-259.80763 21.65064,-12.5 21.65063,-12.499995 -39.14062,-67.79356 -21.65064,12.5 z m 102.37877,377.512735 39.14062,67.79355 21.65064,-12.5 -39.14063,-67.79355 -21.65063,12.5 z"
           style="fill:#ffffff;fill-opacity:1;fill-rule:nonzero;stroke:none" />
        <path
           inkscape:connector-curvature="0"
           id="path5003"
           d="m 71.143734,103.3819 46.142916,26.64062 -24.999996,43.30128 21.650626,12.49999 259.80762,150.00001 -12.49999,21.65064 21.65063,12.49998 25,-43.30127 -21.65063,-12.49998 -259.80763,-150.00001 12.50001,-21.65064 12.5,-21.65062 L 83.643744,81.731255 71.143734,103.3819 z m 277.418976,275.74623 67.79355,39.14062 12.50001,-21.65063 -67.79356,-39.14062 -12.5,21.65063 z"
           style="fill:#ffffff;fill-opacity:1;fill-rule:nonzero;stroke:none" />
      </g>
    </g>
    <path
       sodipodi:nodetypes="cscccscsssc"
       inkscape:connector-curvature="0"
       id="path3864-9-0"
       d="m 1028.7512,404.92796 c 73.3674,-44.54333 161.2506,-64.96932 246.2391,-65.15933 82.3563,-0.18414 169.5165,18.55251 245.8249,64.15933 -0.2797,81.84984 1.7853,43.34775 1.3392,124.17945 1.0696,28.06298 -3.5635,57.86537 -9.0789,82.64743 -4.1,18.2403 -9.376,36.15117 -16.1126,53.65287 -32.1443,83.51092 -97.5501,166.7157 -219.9004,214.75892 -94.7846,-36.06142 -170.5003,-95.5382 -215.2744,-193.00961 -14.0412,-30.56721 -25.2668,-65.14453 -30.1037,-102.58702 -1.8736,-14.50418 -3.2337,-31.56565 -3.3336,-47.42726 -0.4373,-69.44987 -0.6393,-61.42475 0.4004,-131.21478 z"
       style="fill:none;stroke:none"
       transform="translate(-1953.2731,-65.76394)" />
    <path
       sodipodi:nodetypes="csssccccccccccccsccccccscsc"
       inkscape:connector-curvature="0"
       id="path3075"
       d="m -886,630.61218 c 43.95848,-9.34929 63.93577,-19.86839 71.65583,-30.9854 3.96135,-5.70441 6.2545,-15.11971 -3.54661,-23.71141 -2.66019,-2.33194 -5.69959,-4.65921 -8.92111,-6.68469 -1.79593,-1.12917 -4.24568,-0.37706 -5.77841,-1.48109 -1.88074,-1.85808 -3.07579,-3.47244 -3.80563,-4.90854 -2.98083,-5.04183 -0.87267,-11.74975 3.66088,-14.12488 3.45649,-1.96797 8.20898,-1.59935 10.11005,-0.60399 2.96647,-7.8377 10.908,-10.11725 19,-7.75 6.16657,-3.64069 16.68913,-7.03748 22.5,4.375 l 4.5,1.25 c 18.08393,-23.81957 31.00653,13.00663 46.5,19.625 l 5,3.625 c 15.97651,2.25884 30.08965,10.72896 45.125,16.125 l -2.625,-12.375 c -8.96107,-3.681 -19.12653,-5.81351 -26.625,-11.375 -7.78544,1.52854 -21.00448,-8.89906 -16.42997,-24.51951 1.49786,-5.11467 10.081,-15.39218 26.67997,-11.35549 l 103.625,-4.25 c 8.42679,-1.90146 23.08925,-4.72936 27.875,12.75 8.22655,1.06585 18.22802,7.67172 18.25,18.875 3.43882,2.77091 6.16733,5.89698 8.19194,9.375 28.07888,13.69928 53.5241,31.64168 75.60502,55.00433 -16.34429,45.89074 -56.28213,96.50312 -102.5419,133.32651 -47.46449,37.78236 -92.83096,56.33362 -109.18619,61.67684 -32.79984,-13.82489 -74.92533,-27.76044 -129.4546,-76.75562 C -844.00455,702.16292 -872.47392,662.89257 -886,630.61218 z"
       style="fill:#0177ff;fill-opacity:1;stroke:#0177ff;stroke-width:1px;stroke-linecap:butt;stroke-linejoin:miter;stroke-opacity:1" />
    <path
       sodipodi:nodetypes="ccccccsc"
       inkscape:connector-curvature="0"
       id="path3063"
       d="m -878.93373,645.59901 3.18198,5.48007 c 26.857,-2.11038 53.0285,-4.67777 77.07464,-8.66205 -27.13278,6.64915 -58.1311,15.28613 -70.88746,19.44543 l 3.35876,4.41942 c 54.23429,-11.82955 94.49557,-24.71275 120.38493,-33.23402 -28.20739,-3.42904 -61.80431,3.31249 -95.28861,8.79191 -10.75247,1.75954 -27.91263,3.34189 -37.82424,3.75924 z"
       style="fill:#ffffff;stroke:#ffffff;stroke-width:1px;stroke-linecap:butt;stroke-linejoin:miter;stroke-opacity:1" />
    <path
       sodipodi:nodetypes="cccscccccsccccccccccccccscccc"
       inkscape:connector-curvature="0"
       id="path3886"
       d="m 1360.8106,637.37495 c 11.2166,6.17229 23.6961,5.24272 27.9634,-9.33211 0.5679,4.36017 -1.3675,9.61319 -3.8384,14.20711 3.7643,4.11377 13.5025,7.17953 18.37,1.31041 3.5131,-4.23611 8.248,-13.87163 -5.745,-20.3104 -0.161,-8.8776 -0.8734,-17.3848 -16.5,-15.875 -0.3984,-8.70574 -2.4943,-16.45509 -19.375,-15.875 l -90.5,0 -7.375,6.875 c -22.8142,-3.86918 -28.8754,1.2601 -30.207,7.85101 -2.3103,11.43549 7.7368,14.61022 10.082,15.14899 -3.5328,-4.28067 -7.359,-8.45003 -4.25,-15.25 0.6726,13.1025 10.8225,12.51557 19.625,13.875 l 19,2.875 10,4.24999 c 11.6147,3.25707 14.5198,-1.64746 17.4375,-3.99999 -2.3412,-4.95312 -1.5555,-9.12631 -0.4375,-13.75 -1.1051,5.33354 1.3321,16.18095 16.875,14.25 -2.1015,4.05564 -5.4642,3.27613 -8.5,3.74999 -2.0782,14.37118 5.9613,18.14093 19.125,14.375 -4.0844,-5.10624 -10.1626,-9.76944 -4.125,-17.12499 l 20.75,8.74999 1.625,5.75 c -0.5737,5.03949 -8.1696,3.37597 -13.5,3.875 2.0152,11.81013 10.616,16.06016 17.3678,16.74998 8.1398,0.83162 16.9542,-4.62257 20.4857,-13.15531 -9.8121,-1.34281 -16.0215,-4.20664 -19.4785,-8.84467 5.5254,-6.33123 11.7842,-11.14333 15.125,-21.99999 1.369,9.08926 -3.991,15.48694 -10,21.62499 z"
       style="fill:#ffffff;stroke:#ffffff;stroke-width:1px;stroke-linecap:butt;stroke-linejoin:miter;stroke-opacity:1"
       transform="translate(-1953.2731,-65.76394)" />
    <path
       inkscape:connector-curvature="0"
       d="m 1274.3471,766.23546 c -2.5593,2.76538 -4.1188,6.38525 -4.1188,10.35842 0.1516,8.72389 1.2754,17.43006 1.3729,26.15134 0.2031,8.12803 -2.3572,15.76219 -5.4703,23.20931 -1.0372,2.05791 -2.1593,4.07215 -3.2821,6.08835 l -3.3036,-0.63338 c -2.9728,-0.56598 -4.9064,-3.31854 -4.312,-6.14962 0.5201,-2.47719 2.8095,-4.19736 5.3631,-4.20873 l 1.2012,0.12259 -2.6814,-21.32969 c -0.8765,-9.49823 -6.0218,-17.82966 -13.6007,-23.25017 -1.3024,-0.93152 -2.6823,-1.78313 -4.1188,-2.53341 l 0,75.75715 18.363,0 c 1.373,7.09865 5.4751,13.28286 11.241,17.52958 1.3715,0.90024 2.5203,2.0876 3.3465,3.47322 0.8262,-1.38562 1.975,-2.57298 3.3464,-3.47322 5.7659,-4.24672 9.8681,-10.43093 11.2411,-17.52958 l 18.363,0 0,-75.75715 c -1.4365,0.75028 -2.8164,1.60189 -4.1188,2.53341 -7.579,5.42051 -12.7242,13.75194 -13.6007,23.25017 l -2.6815,21.32969 1.2013,-0.12259 c 2.5536,0.0114 4.8429,1.73154 5.363,4.20873 0.5944,2.83108 -1.3393,5.58364 -4.3119,6.14962 l -3.3036,0.63338 c -1.1228,-2.0162 -2.2449,-4.03044 -3.2821,-6.08835 -3.1131,-7.44712 -5.6734,-15.08128 -5.4703,-23.20931 0.097,-8.72128 1.2212,-17.42745 1.3729,-26.15134 0,-3.97317 -1.5596,-7.59304 -4.1188,-10.35842 z m -27.4588,18.73502 c 3.554,3.97232 5.9391,8.92244 6.6502,14.36276 l 2.2096,17.5909 c -2.8136,1.33398 -4.9465,3.78128 -5.7492,6.74215 l -3.1106,0 0,-38.69581 z m 54.9175,0 0,38.69581 -3.1105,0 c -0.8027,-2.96087 -2.9356,-5.40817 -5.7492,-6.74215 l 2.2096,-17.5909 c 0.7111,-5.44032 3.0962,-10.39044 6.6501,-14.36276 z m -27.4587,35.36556 c 1.4753,4.59524 3.5047,8.95873 6.028,13.01441 -2.3999,0.69439 -4.4888,2.04504 -6.028,3.86138 -1.5393,-1.81634 -3.6281,-3.16699 -6.028,-3.86138 2.5233,-4.05568 4.5527,-8.41917 6.028,-13.01441 z m -27.4588,8.5605 3.1106,0 c 0.9807,3.60955 3.9396,6.46155 7.7014,7.45719 l 2.6386,0.57206 c -0.7066,2.43933 -1.0941,5.00943 -1.0941,7.66157 l -12.3565,0 0,-15.69082 z m 51.807,0 3.1105,0 0,15.69082 -12.3564,0 c 0,-2.65214 -0.3875,-5.22224 -1.0941,-7.66157 l 2.6386,-0.57206 c 3.7618,-0.99564 6.7207,-3.84764 7.7014,-7.45719 z m -32.9935,9.2347 c 3.3315,0.44844 5.8994,3.1602 5.8994,6.45612 l -6.8647,0 c 0,-2.24202 0.3488,-4.40265 0.9653,-6.45612 z m 17.2906,0 c 0.6165,2.05347 0.9652,4.2141 0.9652,6.45612 l -6.8646,0 c 0,-3.29592 2.5679,-6.00768 5.8994,-6.45612 z m -17.6338,11.68638 6.2426,0 0,11.01214 c -3.0295,-3.01636 -5.2303,-6.80392 -6.2426,-11.01214 z m 11.7344,0 6.2425,0 c -1.0122,4.20822 -3.213,7.99578 -6.2425,11.01214 l 0,-11.01214 z"
       id="path7306-4"
       style="fill:#ffffff"
       transform="translate(-1953.2731,-65.76394)" />
    <path
       sodipodi:nodetypes="cscccssccssccccc"
       inkscape:connector-curvature="0"
       id="path3061"
       d="m -883.625,636.36218 c 15.02698,-0.75303 45.64281,-5.01619 61.38209,-7.28248 39.25822,-5.65278 73.10252,-10.94539 120.07331,-4.14212 -10.3294,6.58514 -24.00294,13.07292 -36.49045,18.05785 -27.23872,10.80687 -70.07204,21.67624 -105.27189,29.12008 50.05022,1.59039 101.63614,-5.14698 153.36288,-13.49382 31.22951,-5.03933 65.06974,-9.86514 108.31998,-11.23448 33.69132,-1.0667 66.52114,1.58968 96.99705,11.47005 l -5.48008,7.24784 c -45.58036,-6.73763 -77.49286,-8.17512 -113.24384,-4.83507 -68.12748,6.36484 -141.00823,19.20896 -191.02001,18.54006 -28.56844,-0.3821 -51.60891,-2.18354 -66.21577,-6.15037 -2.27668,-0.76559 -4.27274,-0.77681 -1.38432,-1.5673 40.21874,-10.97982 65.80359,-15.26979 143.29168,-43.2872 -40.0966,-8.93453 -107.64113,7.96428 -162.10423,12.55115 z"
       style="fill:#ffffff;stroke:#ffffff;stroke-width:1px;stroke-linecap:butt;stroke-linejoin:miter;stroke-opacity:1" />
    <path
       sodipodi:nodetypes="ccssccssc"
       inkscape:connector-curvature="0"
       id="path3065"
       d="m -856.47421,681.56678 5.37653,6.99785 c 35.60164,3.39028 72.34137,4.833 111.57244,4.01314 34.77392,-0.72671 72.79994,-3.37795 108.97251,-6.70525 51.00971,-4.69208 87.05644,-6.18337 131.05273,-7.76034 l 1.25,-1.75 c -55.86951,-3.54218 -89.09451,-0.74526 -142.24269,3.26215 -34.30251,2.58644 -86.76361,7.66919 -121.90337,7.77524 -29.58258,0.0893 -60.75404,-1.97302 -94.07815,-5.83279 z"
       style="fill:#ffffff;stroke:#ffffff;stroke-width:1px;stroke-linecap:butt;stroke-linejoin:miter;stroke-opacity:1" />
    <path
       sodipodi:nodetypes="cccscc"
       inkscape:connector-curvature="0"
       id="path3069"
       d="m -572.0625,580.54968 c 38.86403,12.43589 70.48013,31.67597 97.8125,54.9375 l -3.5,7 c -19.90904,-14.16276 -35.6203,-21.90801 -55.18566,-30.76711 -15.61158,-7.06884 -36.70159,-12.64418 -51.00184,-16.23289 5.77602,-2.77992 10.70022,-7.40716 11.875,-14.9375 z"
       style="fill:#ffffff;stroke:#ffffff;stroke-width:1px;stroke-linecap:butt;stroke-linejoin:miter;stroke-opacity:1" />
    <path
       sodipodi:nodetypes="ccsccc"
       inkscape:connector-curvature="0"
       id="path3071"
       d="m -540.49475,565.60755 c -0.87527,6.40861 -1.65083,12.89556 -7.07106,15.73313 13.37975,6.27788 26.80691,12.91129 40.55068,21.91933 11.40253,7.47353 23.02299,17.45657 35.01513,29.35217 l 4.5,-10.125 c -19.98847,-23.24209 -45.91616,-41.84926 -72.99475,-56.87963 z"
       style="fill:#ffffff;stroke:#ffffff;stroke-width:1px;stroke-linecap:butt;stroke-linejoin:miter;stroke-opacity:1" />
    <path
       sodipodi:nodetypes="cscccscssssc"
       inkscape:connector-curvature="0"
       id="path3864-9"
       d="m 1027.9758,401.66811 c 73.7493,-44.77519 161.0847,-62.04058 246.5156,-62.23158 82.785,-0.1851 170.3988,16.16133 247.1044,62.00554 -0.2811,82.27587 1.7946,46.06113 1.3462,127.31356 1.0752,28.20905 -3.5821,58.16657 -9.1262,83.07762 -4.1213,18.33524 -9.4248,36.33934 -16.1964,53.93214 -32.3116,83.9456 -98.4329,166.83347 -221.42,215.12676 -76.2746,-28.98318 -138.1624,-71.60531 -186.0137,-139.87422 -11.379,-16.23436 -21.1723,-34.15892 -30.0063,-53.39002 -14.1142,-30.72631 -25.3983,-65.48362 -30.2603,-103.121 -1.8834,-14.57967 -3.2506,-31.72995 -3.351,-47.67412 -0.4396,-69.81137 0.3626,-65.01139 1.4077,-135.16468 z"
       style="fill:none;stroke:#000000;stroke-width:4.01679945;stroke-linecap:butt;stroke-linejoin:miter;stroke-miterlimit:4;stroke-opacity:1;stroke-dasharray:none"
       transform="translate(-1953.2731,-65.76394)" />
    <path
       sodipodi:nodetypes="ccccccccc"
       inkscape:connector-curvature="0"
       id="path3077"
       d="m -734.125,584.42468 c 5.09243,-1.11108 4.26663,-2.07125 5.6875,-2.875 9.93777,1.36363 21.22492,5.62926 31.6875,9.5 l 0.375,-2 c -9.25689,-3.81462 -17.13539,-8.15914 -30.875,-9.75 3.00001,-2.8254 3.13907,-7.1046 2.5,-7.75 10.20833,2.45644 20.41667,6.81794 30.625,10.65533 l -1,14.71967 c -10.98214,-4.76455 -21.82065,-9.57166 -39,-12.5 z"
       style="fill:#ffffff;stroke:#ffffff;stroke-width:1px;stroke-linecap:butt;stroke-linejoin:miter;stroke-opacity:1" />
    <path
       sodipodi:nodetypes="ccccccccc"
       inkscape:connector-curvature="0"
       id="path3816"
       d="m -855.09413,192.34356 -7.82868,81.19101 23.68174,-6.88668 0.44194,-13.66071 25.50006,-7.48435 6.9448,11.30109 24.62247,-7.32361 -47.73249,-66.09134 z"
       style="fill:#ffffff;stroke:#000000;stroke-width:1px;stroke-linecap:butt;stroke-linejoin:miter;stroke-opacity:1" />
    <path
       sodipodi:nodetypes="cccc"
       inkscape:connector-curvature="0"
       id="path3818"
       d="m -837.03766,207.74838 -0.82074,27.71606 15.7205,-4.92449 z"
       style="fill:#000000;stroke:#000000;stroke-width:1px;stroke-linecap:butt;stroke-linejoin:miter;stroke-opacity:1" />
    <path
       sodipodi:nodetypes="cccccccccccsccssc"
       inkscape:connector-curvature="0"
       id="path3820"
       d="m -767.41072,223.70147 22.58929,-4.375 c 1.25634,3.19085 3.76117,7.29606 8.95575,7.41767 14.22202,0.35955 16.22324,-16.42073 4.14206,-19.51207 -3.08281,-0.64839 -7.04795,-0.25792 -12.11567,0.2194 l -0.26785,-14.19643 c 2.56056,0.0931 4.67417,-0.13928 6.41182,-0.59902 6.29453,-0.99354 9.70802,-9.25201 6.15206,-13.20652 -3.39027,-3.58551 -11.10702,-3.93533 -14.89405,1.96651 -0.57234,1.05233 -0.98518,2.35725 -1.15198,3.98188 l -21.07143,0 c 0.60261,-16.19644 17.05412,-24.63234 34.382,-25.26712 12.7693,-0.46778 28.94194,6.06448 27.22152,22.4296 0.20561,8.09134 -7.67221,14.01013 -8.24105,13.3977 13.90856,3.61672 17.3525,13.86091 15.29299,24.20356 -3.00764,15.10405 -14.00187,21.28479 -29.1303,23.74541 -14.82925,2.41196 -30.17619,-1.66032 -38.27516,-20.20557 z"
       style="fill:#ffffff;stroke:#000000;stroke-width:1px;stroke-linecap:butt;stroke-linejoin:miter;stroke-opacity:1" />
    <path
       sodipodi:nodetypes="cscsc"
       inkscape:connector-curvature="0"
       id="path3822"
       d="m -670.15303,215.47515 c 5.37681,27.19635 40.88963,33.66232 62.56022,21.63335 13.8311,-7.67741 17.37794,-27.17381 14.44526,-48.60723 -4.52917,-25.12209 -37.30362,-32.75141 -55.63485,-26.5047 -19.1112,6.51249 -27.54763,30.96062 -21.37063,53.47858 z"
       style="fill:#ffffff;stroke:#000000;stroke-width:1px;stroke-linecap:butt;stroke-linejoin:miter;stroke-opacity:1" />
    <path
       sodipodi:nodetypes="ccsccc"
       inkscape:connector-curvature="0"
       id="path3822-4"
       d="m -647.98678,210.02185 c 1.74465,11.46497 9.46751,15.31251 19.11754,14.38854 9.57658,-1.97917 11.68368,-10.45457 13.108,-19.15478 1.55894,-9.52251 -0.69419,-19.03132 -6.15278,-23.45713 -8.24596,-4.92423 -17.66275,-3.71043 -22.48524,4.12062 -3.46757,5.79691 -3.83277,14.11256 -3.58752,24.10275 z"
       style="fill:#000000;stroke:#000000;stroke-width:0.64046562px;stroke-linecap:butt;stroke-linejoin:miter;stroke-opacity:1" />
    <path
       sodipodi:nodetypes="ccsscsssc"
       inkscape:connector-curvature="0"
       id="path3842"
       d="m -569.22096,252.25823 20.07678,-74.94069 c 2.49796,0.67621 17.34104,5.73729 31.6239,10.51933 14.94891,5.00504 24.19998,9.34959 27.14792,15.13073 3.81503,7.48155 5.83158,25.73607 -14.70391,26.12026 4.56025,1.87204 9.82398,7.69165 10.84977,12.03457 2.55689,10.82523 -4.80622,20.06004 -9.28437,22.41867 -5.27813,2.77997 -15.65558,2.86232 -25.58195,0.0482 -14.95462,-4.23965 -30.2702,-8.76835 -40.12814,-11.33107 z"
       style="fill:#ffffff;stroke:#000000;stroke-width:1px;stroke-linecap:butt;stroke-linejoin:miter;stroke-opacity:1" />
    <path
       sodipodi:nodetypes="ccsc"
       inkscape:connector-curvature="0"
       id="path3844"
       d="m -529.64286,200.48718 -3.83928,13.125 c 13.52901,3.65994 18.1312,7.92705 20.95706,-0.36991 2.8342,-8.32147 -5.5783,-8.80664 -17.11778,-12.75509 z"
       style="fill:#000000;stroke:#000000;stroke-width:1px;stroke-linecap:butt;stroke-linejoin:miter;stroke-opacity:1" />
    <path
       sodipodi:nodetypes="ccsc"
       inkscape:connector-curvature="0"
       id="path3844-0"
       d="m -537.25465,228.5658 -3.60569,13.88668 c 14.3046,3.40469 20.87456,8.08918 23.57218,-0.70205 2.70557,-8.8172 -8.00685,-10.03866 -19.96649,-13.18463 z"
       style="fill:#000000;stroke:#000000;stroke-width:1.04915214px;stroke-linecap:butt;stroke-linejoin:miter;stroke-opacity:1" />
    <path
       sodipodi:nodetypes="cssccssccsccccccccccccc"
       inkscape:connector-curvature="0"
       id="path3865"
       d="m -820,553.61218 c -4.56288,-4.35285 -12.84487,-3.91145 -13.23747,2.62546 -0.0502,0.83596 -1.44522,1.65332 -1.08511,3.46426 0.74296,3.73614 4.08788,8.14847 9.51008,4.78528 l 2.44352,0.2867 c 0.69074,4.53725 4.70144,4.55096 8.29994,2.76076 1.64394,-0.81784 -0.44034,-2.81124 1.25541,-2.51116 1.37273,0.24292 4.81274,-2.16342 4.68863,-3.9113 1.7681,1.25168 2.39838,3.20356 6.125,3.25 -0.99792,1.7464 3.07732,5.20274 5.99913,5.6526 1.82332,0.28074 4.45815,-0.86844 5.87587,-5.2776 1.24686,1.20082 1.42528,2.99047 4.75,3.375 -0.33214,7.46051 2.18907,13.02479 12,9.4375 -1.68123,-1.75685 -4.29803,-4.83703 -3.125,-6.6875 1.90285,2.40388 4.61129,4.95699 8.125,5.75 -2.27921,5.0457 -0.40117,8.43453 2.32583,10.34675 5.11403,2.91731 12.82855,2.64757 15.74844,-1.26068 3.02731,-3.49935 2.77229,-8.80362 4.67573,-9.46107 l -9,-25.625 c -5.85184,-5.27784 -10.66814,-15.81304 -20.625,-0.25 l -7.5,-2.125 c -4.16044,-8.3775 -10.30953,-11.25699 -20.125,-4 -9.25753,-2.57384 -16.01755,0.13954 -17.125,9.375 z"
       style="fill:#ffffff;stroke:none" />
    <path
       sodipodi:nodetypes="ccc"
       inkscape:connector-curvature="0"
       id="path3867"
       d="m -830.93886,557.21066 c 1.32399,5.8216 5.39546,9.61805 12.46626,5.45954 1.38253,1.25669 2.47381,3.00503 6.18368,2.27444"
       style="fill:none;stroke:#0177ff;stroke-width:1px;stroke-linecap:butt;stroke-linejoin:miter;stroke-opacity:1" />
    <path
       sodipodi:nodetypes="csc"
       inkscape:connector-curvature="0"
       id="path3869"
       d="m -808.97435,555.75225 c -0.0255,4.61625 2.13486,6.92145 4.95418,7.87645 3.0432,1.03083 5.67762,-0.22957 8.39246,-2.74993"
       style="fill:none;stroke:#0177ff;stroke-width:1px;stroke-linecap:butt;stroke-linejoin:miter;stroke-opacity:1" />
    <path
       sodipodi:nodetypes="csc"
       inkscape:connector-curvature="0"
       id="path3871"
       d="m -790.4128,560.702 c 0.47681,2.77342 0.62775,6.16003 4.12423,7.16871 2.37084,0.68394 4.86797,-0.0108 8.5595,-2.74929"
       style="fill:none;stroke:#0177ff;stroke-width:1px;stroke-linecap:butt;stroke-linejoin:miter;stroke-opacity:1" />
    <path
       inkscape:connector-curvature="0"
       id="path3873"
       d="m -776.62422,566.84499 0,4.41942"
       style="fill:none;stroke:#000000;stroke-width:1px;stroke-linecap:butt;stroke-linejoin:miter;stroke-opacity:1" />
    <path
       sodipodi:nodetypes="ccccccccccccccccc"
       inkscape:connector-curvature="0"
       id="path3018-1"
       d="m -701.53898,318.07517 0.2868,125.87872 c -23.52285,-19.14893 -46.82988,-39.47883 -70.50369,-59.307 l 0.78921,196.27947 42.59512,0.1881 -0.29045,-96.11845 26.16075,20.40753 -0.87253,125.19337 44.02374,33.24274 -0.15573,-125.75579 70.13134,54.45666 1.39251,-194.03801 -45.63665,-0.12627 0.88389,98.67705 c -11.29498,-8.25078 -15.06949,-11.04619 -26.5097,-19.95024 l -0.13134,-127.72212 z"
       style="fill:#ffffff;stroke:#000000;stroke-width:2;stroke-linecap:butt;stroke-linejoin:miter;stroke-miterlimit:4;stroke-opacity:1;stroke-dasharray:none" />
    <path
       sodipodi:nodetypes="ccccccccc"
       inkscape:connector-curvature="0"
       id="path3018"
       d="m -767.96767,392.41829 0,185.66604 36.35286,0 0,-99.31063 139.17689,107.18559 0.875,-184.07142 -38.48215,0 0.18566,101.76084 c -44.793,-32.72036 -92.00564,-72.61677 -138.10826,-111.23042 z"
       style="fill:#000000;fill-opacity:1;stroke:#000000;stroke-width:1px;stroke-linecap:butt;stroke-linejoin:miter;stroke-opacity:1" />
    <path
       inkscape:connector-curvature="0"
       id="path3020"
       d="m -700.19355,628.34434 37.53348,28.12643 0,-305.19233 -35.29221,-25.9483 z"
       style="fill:#000000;stroke:#000000;stroke-width:1px;stroke-linecap:butt;stroke-linejoin:miter;stroke-opacity:1" />
  </g>
</svg>
