<?xml version="1.0" encoding="UTF-8"?>
<svg width="900" height="540" version="1.1" xmlns="http://www.w3.org/2000/svg">
 <rect width="900" height="540"/>
 <g fill="#fff">
  <path d="m348.3 75c5.298 5.946 15.891 17.833 23.467 26.317 7.5759 8.483 12.133 13.561 16.821 18.249 4.6876 4.687 9.5053 8.984 14 12.296s8.6639 5.639 12.835 7.967c0 0-0.305 58.942-0.305 58.942s-3.551 0.08-3.551 0.08c-1.2905-1.853-2.58-3.704-5.5386-7.441-2.9587-3.738-7.5816-9.355-12.026-14.289-4.4449-4.933-8.7043-9.174-12.918-12.533-4.2139-3.358-8.3817-5.833-12.548-8.307l-3.6132 321-5.4688 0.39c-8.8216-11.426-17.642-22.851-26.155-32.47-8.5122-9.619-16.716-17.432-22.38-22.966-5.6639-5.533-8.7887-8.788-12.432-11.96-3.6428-3.171-7.8024-6.257-10.705-8.246-2.903-1.988-4.5492-2.878-6.1945-3.767l1.0101-59.556c2.6042 2.474 5.2094 4.949 9.5063 9.571 4.2969 4.623 10.286 11.393 16.406 17.448 6.1201 6.055 12.369 11.392 18.619 16.731l2.0439-2.502 3.2867-318.15s5.5358-0.668 5.5358-0.668c1.669 2.641 3.3388 5.283 4.1729 6.603 0.8342 1.32 0.8342 1.322 6.1323 7.267z"/>
  <path d="m449.8 75c5.298 5.946 15.891 17.833 23.467 26.317 7.5759 8.483 12.133 13.561 16.821 18.249 4.6876 4.687 9.5053 8.984 14 12.296s8.6639 5.639 12.835 7.967c0 0-0.305 58.942-0.305 58.942s-3.551 0.08-3.551 0.08c-1.2905-1.853-2.58-3.704-5.5386-7.441-2.9587-3.738-7.5816-9.355-12.026-14.289-4.4449-4.933-8.7043-9.174-12.918-12.533-4.2139-3.358-8.3817-5.833-12.548-8.307l-3.6132 321-5.4688 0.39c-8.8216-11.426-17.642-22.851-26.155-32.47-8.5122-9.619-16.716-17.432-22.38-22.966-5.6639-5.533-8.7887-8.788-12.432-11.96-3.6428-3.171-7.8024-6.257-10.705-8.246-2.903-1.988-4.5492-2.878-6.1945-3.767l1.0101-59.556c2.6042 2.474 5.2094 4.949 9.5063 9.571 4.297 4.623 10.286 11.393 16.406 17.448s12.369 11.392 18.619 16.731l2.0439-2.502 3.2866-318.15s5.5358-0.668 5.5358-0.668c1.669 2.641 3.3388 5.283 4.1729 6.603 0.8342 1.32 0.8342 1.322 6.1323 7.267z"/>
  <path d="m551.4 75c5.298 5.946 15.891 17.833 23.467 26.317 7.5759 8.483 12.133 13.561 16.821 18.249 4.6876 4.687 9.5053 8.984 14 12.296s8.6639 5.639 12.835 7.967c0 0-0.305 58.942-0.305 58.942s-3.551 0.08-3.551 0.08c-1.2905-1.853-2.58-3.704-5.5386-7.441-2.9587-3.738-7.5816-9.355-12.026-14.289-4.4449-4.933-8.7043-9.174-12.918-12.533-4.2139-3.358-8.3817-5.833-12.548-8.307l-3.6132 321-5.4688 0.39c-8.8216-11.426-17.642-22.851-26.155-32.47-8.5122-9.619-16.716-17.432-22.38-22.966-5.6639-5.533-8.7887-8.788-12.432-11.96-3.6428-3.171-7.8024-6.257-10.705-8.246-2.903-1.988-4.5492-2.878-6.1945-3.767l1.0101-59.556c2.6042 2.474 5.2094 4.949 9.5063 9.571 4.2969 4.623 10.286 11.393 16.406 17.448 6.1201 6.055 12.369 11.392 18.619 16.731l2.0439-2.502 3.2867-318.15s5.5358-0.668 5.5358-0.668c1.669 2.641 3.3388 5.283 4.1729 6.603 0.8342 1.32 0.8342 1.322 6.1323 7.267z"/>
 </g>
</svg>
